<?xml version="1.0" encoding="utf-8"?><svg fill="none" height="100%" width="100%" viewBox="0 0 500 500" xmlns:xlink="http://www.w3.org/1999/xlink" xmlns="http://www.w3.org/2000/svg"><defs /><g id="bar1"><g transform="translate(68.224,327.468)"><g transform="scale(0.583,0.583)"><animateTransform repeatCount="indefinite" type="scale" attributeName="transform" dur="2.7s" begin="0s" calcMode="spline" values="0.583 0.583; 0.583 0.903; 0.583 0.583; 0.583 0.583" keyTimes="0; 0.469136; 0.987654; 1" keySplines="0.333 0 0.667 1; 0.167 0 0.667 1; 0 0 1 1" fill="freeze" /><g transform="translate(-37.39,-217.663)"><g id="Path 13552"><path fill="#d0e1fb" fill-opacity="1" d="M68.437,217.282C68.437,217.282,6.342,217.282,6.342,217.282C2.841,217.278,0.004,214.441,0,210.94C0,210.94,0,6.342,0,6.342C0.004,2.841,2.841,0.004,6.342,0C6.342,0,68.437,0,68.437,0C71.938,0.004,74.776,2.841,74.78,6.342C74.78,6.342,74.78,210.94,74.78,210.94C74.776,214.441,71.938,217.278,68.437,217.282Z" /></g></g></g></g></g><g id="bar2"><g transform="translate(134.248,327.468)"><g transform="scale(0.583,0.583)"><animateTransform repeatCount="indefinite" type="scale" attributeName="transform" dur="2.7s" begin="0s" calcMode="spline" values="0.583 0.583; 0.583 0.443; 0.583 0.583; 0.583 0.583" keyTimes="0; 0.506173; 0.987654; 1" keySplines="0.333 0 0.667 1; 0.167 0 0.667 1; 0 0 1 1" fill="freeze" /><g transform="translate(-37.39,-298.852)"><g id="Path 13553"><path fill="#d0e1fb" fill-opacity="1" d="M68.437,298.471C68.437,298.471,6.342,298.471,6.342,298.471C2.841,298.467,0.004,295.63,0,292.129C0,292.129,0,6.342,0,6.342C0.004,2.841,2.841,0.004,6.342,0C6.342,0,68.437,0,68.437,0C71.938,0.004,74.776,2.841,74.78,6.342C74.78,6.342,74.78,292.129,74.78,292.129C74.776,295.63,71.938,298.467,68.437,298.471Z" /></g></g></g></g></g><g id="bar3"><g transform="translate(200.273,327.468)"><g transform="scale(0.583,0.583)"><animateTransform repeatCount="indefinite" type="scale" attributeName="transform" dur="2.7s" begin="0s" calcMode="spline" values="0.583 0.583; 0.583 0.853; 0.583 0.583; 0.583 0.583" keyTimes="0; 0.518519; 0.987654; 1" keySplines="0.333 0 0.667 1; 0.167 0 0.667 1; 0 0 1 1" fill="freeze" /><g transform="translate(-37.39,-217.663)"><g id="Path 13554"><path fill="#d0e1fb" fill-opacity="1" d="M68.437,217.282C68.437,217.282,6.342,217.282,6.342,217.282C2.841,217.278,0.004,214.441,0,210.94C0,210.94,0,6.342,0,6.342C0.004,2.841,2.841,0.004,6.342,0C6.342,0,68.437,0,68.437,0C71.938,0.004,74.776,2.841,74.78,6.342C74.78,6.342,74.78,210.94,74.78,210.94C74.776,214.441,71.938,217.278,68.437,217.282Z" /></g></g></g></g></g><g id="bar4"><g transform="translate(266.297,327.247)"><g transform="scale(0.583,0.583)"><animateTransform repeatCount="indefinite" type="scale" attributeName="transform" dur="2.7s" begin="0s" calcMode="spline" values="0.583 0.583; 0.583 0.413; 0.583 0.583; 0.583 0.583" keyTimes="0; 0.469136; 0.987654; 1" keySplines="0.333 0 0.667 1; 0.167 0 0.667 1; 0 0 1 1" fill="freeze" /><g transform="translate(-37.39,-330.522)"><g id="Path 13555"><path fill="#d0e1fb" fill-opacity="1" d="M68.437,330.521C68.437,330.521,6.342,330.521,6.342,330.521C2.921,330.595,0.085,327.887,0,324.466C0,324.466,0,6.056,0,6.056C0.085,2.635,2.921,-0.073,6.342,0.001C6.342,0.001,68.437,0.001,68.437,0.001C71.858,-0.073,74.695,2.635,74.78,6.056C74.78,6.056,74.78,324.466,74.78,324.466C74.695,327.887,71.858,330.595,68.437,330.521Z" /></g></g></g></g></g><g id="bar5"><g transform="translate(332.322,327.468)"><g transform="scale(0.583,0.583)"><animateTransform repeatCount="indefinite" type="scale" attributeName="transform" dur="2.7s" begin="0s" calcMode="spline" values="0.583 0.583; 0.583 0.293; 0.583 0.583; 0.583 0.583" keyTimes="0; 0.493827; 0.987654; 1" keySplines="0.333 0 0.667 1; 0.167 0 0.667 1; 0 0 1 1" fill="freeze" /><g transform="translate(-37.39,-388.587)"><g id="Path 13556"><path fill="#d0e1fb" fill-opacity="1" d="M68.437,388.206C68.437,388.206,6.342,388.206,6.342,388.206C2.841,388.202,0.004,385.365,0,381.864C0,381.864,0,6.342,0,6.342C0.004,2.841,2.841,0.004,6.342,0C6.342,0,68.437,0,68.437,0C71.938,0.004,74.775,2.841,74.779,6.342C74.779,6.342,74.78,381.864,74.78,381.864C74.776,385.365,71.938,388.202,68.437,388.206Z" /></g></g></g></g></g><g id="circle 1"><g transform="translate(68.224,178.134)"><animateTransform repeatCount="indefinite" type="translate" attributeName="transform" dur="2.7s" begin="0s" calcMode="spline" values="68.224 178.134; 68.224 109.134; 68.224 178.134; 68.224 178.134" keyTimes="0; 0.493827; 0.987654; 1" keySplines="0.333 0 0.667 1; 0.333 0 0.667 1; 0 0 1 1" fill="freeze" /><g transform="scale(0.583,0.583) translate(0,0)"><g id="Ellipse 263"><ellipse ry="12.8195" rx="12.8195" cy="0" cx="0" fill="#ffffff" fill-opacity="1" /></g></g></g></g><g id="circle2"><g transform="translate(134.248,129.55)"><animateTransform repeatCount="indefinite" type="translate" attributeName="transform" dur="2.7s" begin="0s" calcMode="spline" values="134.248 129.55; 134.248 170.8; 134.248 129.55; 134.248 129.55" keyTimes="0; 0.493827; 0.987654; 1" keySplines="0.333 0 0.667 1; 0.333 0 0.667 1; 0 0 1 1" fill="freeze" /><g transform="scale(0.583,0.583) translate(0,0)"><g id="Ellipse 264"><ellipse ry="12.8195" rx="12.8195" cy="0" cx="0" fill="#ffffff" fill-opacity="1" /></g></g></g></g><g id="circle3"><g transform="translate(200.273,178.134)"><animateTransform repeatCount="indefinite" type="translate" attributeName="transform" dur="2.7s" begin="0s" calcMode="spline" values="200.273 178.134; 200.273 115.134; 200.273 178.134; 200.273 178.134" keyTimes="0; 0.493827; 0.987654; 1" keySplines="0.333 0 0.667 1; 0.333 0 0.667 1; 0 0 1 1" fill="freeze" /><g transform="scale(0.583,0.583) translate(0,0)"><g id="Ellipse 265"><ellipse ry="12.8195" rx="12.8195" cy="0" cx="0" fill="#ffffff" fill-opacity="1" /></g></g></g></g><g id="circle4"><g transform="translate(266.297,105.881)"><animateTransform repeatCount="indefinite" type="translate" attributeName="transform" dur="2.7s" begin="0s" calcMode="spline" values="266.297 105.881; 266.297 161.131; 266.297 105.881; 266.297 105.881" keyTimes="0; 0.493827; 0.987654; 1" keySplines="0.333 0 0.667 1; 0.333 0 0.667 1; 0 0 1 1" fill="freeze" /><g transform="scale(0.583,0.583) translate(0,0)"><g id="Ellipse 266"><ellipse ry="12.8195" rx="12.8195" cy="0" cx="0" fill="#ffffff" fill-opacity="1" /></g></g></g></g><g id="circle5"><g transform="translate(332.322,78.474)"><animateTransform repeatCount="indefinite" type="translate" attributeName="transform" dur="2.7s" begin="0s" calcMode="spline" values="332.322 78.474; 332.322 189.849; 332.322 78.474; 332.322 78.474" keyTimes="0; 0.493827; 0.987654; 1" keySplines="0.333 0 0.667 1; 0.333 0 0.667 1; 0 0 1 1" fill="freeze" /><g transform="scale(0.583,0.583) translate(0,0)"><g id="Ellipse 267"><ellipse ry="12.8195" rx="12.8195" cy="0" cx="0" fill="#ffffff" fill-opacity="1" /></g></g></g></g><g transform="matrix(0.583,0,0,0.583,6.281,327.468)" id="Path 13557"><g id="Path 13557"><path fill="#d0e1fb" fill-opacity="1" d="M663,2C663,2,1,2,1,2C0.448,2,0,1.552,0,1C0,0.448,0.448,0,1,0C1,0,663,0,663,0C663.552,0,664,0.448,664,1C664,1.552,663.552,2,663,2Z" /></g></g><g transform="matrix(1,0,0,1,250,250)" id="Shape Layer 1"><g id="Shape 1"><path d="M-182,-72C-182,-72,-115.125,-121.875,-115.125,-121.875C-115.125,-121.875,-49.75,-72,-49.75,-72C-49.75,-72,17,-144.625,17,-144.625C17,-144.625,82.625,-171.375,82.625,-171.375" stroke-miterlimit="4" stroke-linejoin="miter" stroke-linecap="butt" stroke-width="2" stroke-opacity="1" stroke="#ffffff"><animate repeatCount="indefinite" attributeName="d" dur="2.7s" begin="0s" calcMode="spline" values="M-182,-72C-182,-72,-115.125,-121.875,-115.125,-121.875C-115.125,-121.875,-49.75,-72,-49.75,-72C-49.75,-72,17,-144.625,17,-144.625C17,-144.625,82.625,-171.375,82.625,-171.375; M-182,-142.5C-182,-142.5,-115.5,-75.875,-115.5,-75.875C-115.5,-75.875,-50,-137.5,-50,-137.5C-50,-137.5,17,-87.625,17,-87.625C17,-87.625,82.5,-59.875,82.5,-59.875; M-182,-72C-182,-72,-115.125,-121.875,-115.125,-121.875C-115.125,-121.875,-49.75,-72,-49.75,-72C-49.75,-72,17,-144.625,17,-144.625C17,-144.625,82.625,-171.375,82.625,-171.375; M-182,-72C-182,-72,-115.125,-121.875,-115.125,-121.875C-115.125,-121.875,-49.75,-72,-49.75,-72C-49.75,-72,17,-144.625,17,-144.625C17,-144.625,82.625,-171.375,82.625,-171.375" keyTimes="0; 0.493827; 0.987654; 1" keySplines="0.333 0 0.667 1; 0.333 0 0.667 1; 0 0 1 1" fill="freeze" /></path></g></g></svg>